<?xml version="1.0" encoding="UTF-8" standalone="no"?>
<svg width="516px" height="484px" viewBox="0 0 516 484" version="1.1" xmlns="http://www.w3.org/2000/svg" xmlns:xlink="http://www.w3.org/1999/xlink">
    <!-- Generator: Sketch 39.1 (31720) - http://www.bohemiancoding.com/sketch -->
    <title>map_overlay</title>
    <desc>Created with Sketch.</desc>
    <defs></defs>
    <g id="Page-1" stroke="none" stroke-width="1" fill="none" fill-rule="evenodd" fill-opacity="0.5" opacity="0.933185634">
        <path d="M0,0 L516,0 L516,484 L0,484 L0,0 Z M89.5039062,229.0625 C92.3164203,226.218736 95.8945095,224.796875 100.238281,224.796875 C106.05081,224.796875 110.300768,226.703106 112.988281,230.515625 C114.472664,232.656261 115.269531,234.804677 115.378906,236.960938 L108.160156,236.960938 C107.691404,235.304679 107.089847,234.054692 106.355469,233.210938 C105.042962,231.71093 103.097669,230.960938 100.519531,230.960938 C97.8945181,230.960938 95.8242263,232.019521 94.3085938,234.136719 C92.7929612,236.253917 92.0351562,239.249981 92.0351562,243.125 C92.0351562,247.000019 92.8359295,249.902334 94.4375,251.832031 C96.0390705,253.761728 98.0742064,254.726562 100.542969,254.726562 C103.074231,254.726562 105.0039,253.898446 106.332031,252.242188 C107.06641,251.351558 107.675779,250.015634 108.160156,248.234375 L115.308594,248.234375 C114.683591,252.000019 113.08595,255.062488 110.515625,257.421875 C107.9453,259.781262 104.652364,260.960938 100.636719,260.960938 C95.6679439,260.960938 91.761733,259.367203 88.9179688,256.179688 C86.0742045,252.976546 84.6523438,248.585965 84.6523438,243.007812 C84.6523438,236.976532 86.2695151,232.328141 89.5039062,229.0625 Z M142.90625,251.679688 C144.585946,249.570302 145.425781,246.570332 145.425781,242.679688 C145.425781,238.804668 144.585946,235.808604 142.90625,233.691406 C141.226554,231.574208 138.957046,230.515625 136.097656,230.515625 C133.238267,230.515625 130.95704,231.570302 129.253906,233.679688 C127.550773,235.789073 126.699219,238.789043 126.699219,242.679688 C126.699219,246.570332 127.550773,249.570302 129.253906,251.679688 C130.95704,253.789073 133.238267,254.84375 136.097656,254.84375 C138.957046,254.84375 141.226554,253.789073 142.90625,251.679688 Z M147.417969,256.929688 C144.808581,259.617201 141.035181,260.960938 136.097656,260.960938 C131.160132,260.960938 127.386732,259.617201 124.777344,256.929688 C121.277326,253.632796 119.527344,248.882844 119.527344,242.679688 C119.527344,236.351531 121.277326,231.601578 124.777344,228.429688 C127.386732,225.742174 131.160132,224.398438 136.097656,224.398438 C141.035181,224.398438 144.808581,225.742174 147.417969,228.429688 C150.902361,231.601578 152.644531,236.351531 152.644531,242.679688 C152.644531,248.882844 150.902361,253.632796 147.417969,256.929688 Z M181.050781,225.453125 L191.433594,225.453125 L191.433594,260 L184.707031,260 L184.707031,236.632812 C184.707031,235.960934 184.714844,235.019537 184.730469,233.808594 C184.746094,232.59765 184.753906,231.664066 184.753906,231.007812 L178.214844,260 L171.207031,260 L164.714844,231.007812 C164.714844,231.664066 164.722656,232.59765 164.738281,233.808594 C164.753906,235.019537 164.761719,235.960934 164.761719,236.632812 L164.761719,260 L158.035156,260 L158.035156,225.453125 L168.535156,225.453125 L174.816406,252.617188 L181.050781,225.453125 Z M204.746094,260 L197.574219,260 L197.574219,225.453125 L204.746094,225.453125 L204.746094,260 Z M211.355469,225.453125 L218.925781,225.453125 L232.683594,249.570312 L232.683594,225.453125 L239.410156,225.453125 L239.410156,260 L232.191406,260 L218.082031,235.460938 L218.082031,260 L211.355469,260 L211.355469,225.453125 Z M269.363281,236.234375 C268.816404,233.874988 267.480479,232.226567 265.355469,231.289062 C264.167963,230.773435 262.847664,230.515625 261.394531,230.515625 C258.613267,230.515625 256.328134,231.566396 254.539062,233.667969 C252.749991,235.769542 251.855469,238.929666 251.855469,243.148438 C251.855469,247.398459 252.824209,250.406241 254.761719,252.171875 C256.699228,253.937509 258.902331,254.820312 261.371094,254.820312 C263.792981,254.820312 265.777336,254.121101 267.324219,252.722656 C268.871101,251.324212 269.824217,249.492199 270.183594,247.226562 L262.191406,247.226562 L262.191406,241.460938 L276.582031,241.460938 L276.582031,260 L271.800781,260 L271.074219,255.6875 C269.683587,257.328133 268.433599,258.484372 267.324219,259.15625 C265.417959,260.328131 263.074233,260.914062 260.292969,260.914062 C255.714821,260.914062 251.964858,259.328141 249.042969,256.15625 C245.996079,252.968734 244.472656,248.609403 244.472656,243.078125 C244.472656,237.484347 246.011703,233.000017 249.089844,229.625 C252.167984,226.249983 256.238256,224.5625 261.300781,224.5625 C265.691428,224.5625 269.218737,225.67577 271.882812,227.902344 C274.546888,230.128917 276.074217,232.906233 276.464844,236.234375 L269.363281,236.234375 Z M302.035156,249.335938 C302.253907,250.91407 302.683591,252.093746 303.324219,252.875 C304.4961,254.296882 306.503892,255.007812 309.347656,255.007812 C311.05079,255.007812 312.433588,254.820314 313.496094,254.445312 C315.511729,253.726559 316.519531,252.390635 316.519531,250.4375 C316.519531,249.296869 316.019536,248.414066 315.019531,247.789062 C314.019526,247.179684 312.449229,246.640627 310.308594,246.171875 L306.652344,245.351562 C303.058576,244.539058 300.574226,243.656255 299.199219,242.703125 C296.871082,241.109367 295.707031,238.617204 295.707031,235.226562 C295.707031,232.132797 296.83202,229.56251 299.082031,227.515625 C301.332043,225.46874 304.636697,224.445312 308.996094,224.445312 C312.636737,224.445312 315.742175,225.410147 318.3125,227.339844 C320.882825,229.269541 322.230468,232.070294 322.355469,235.742188 L315.417969,235.742188 C315.292968,233.664052 314.386727,232.187504 312.699219,231.3125 C311.574213,230.734372 310.17579,230.445312 308.503906,230.445312 C306.644522,230.445312 305.160162,230.820309 304.050781,231.570312 C302.941401,232.320316 302.386719,233.367181 302.386719,234.710938 C302.386719,235.945319 302.933588,236.867184 304.027344,237.476562 C304.730472,237.882815 306.230457,238.359372 308.527344,238.90625 L314.480469,240.335938 C317.089857,240.960941 319.058587,241.79687 320.386719,242.84375 C322.449229,244.468758 323.480469,246.820297 323.480469,249.898438 C323.480469,253.054703 322.27345,255.675771 319.859375,257.761719 C317.4453,259.847667 314.035178,260.890625 309.628906,260.890625 C305.128884,260.890625 301.589857,259.863292 299.011719,257.808594 C296.433581,255.753896 295.144531,252.929705 295.144531,249.335938 L302.035156,249.335938 Z M350.914062,251.679688 C352.593758,249.570302 353.433594,246.570332 353.433594,242.679688 C353.433594,238.804668 352.593758,235.808604 350.914062,233.691406 C349.234367,231.574208 346.964858,230.515625 344.105469,230.515625 C341.246079,230.515625 338.964852,231.570302 337.261719,233.679688 C335.558585,235.789073 334.707031,238.789043 334.707031,242.679688 C334.707031,246.570332 335.558585,249.570302 337.261719,251.679688 C338.964852,253.789073 341.246079,254.84375 344.105469,254.84375 C346.964858,254.84375 349.234367,253.789073 350.914062,251.679688 Z M355.425781,256.929688 C352.816393,259.617201 349.042993,260.960938 344.105469,260.960938 C339.167944,260.960938 335.394544,259.617201 332.785156,256.929688 C329.285139,253.632796 327.535156,248.882844 327.535156,242.679688 C327.535156,236.351531 329.285139,231.601578 332.785156,228.429688 C335.394544,225.742174 339.167944,224.398438 344.105469,224.398438 C349.042993,224.398438 352.816393,225.742174 355.425781,228.429688 C358.910174,231.601578 360.652344,236.351531 360.652344,242.679688 C360.652344,248.882844 358.910174,253.632796 355.425781,256.929688 Z M388.25,251.679688 C389.929696,249.570302 390.769531,246.570332 390.769531,242.679688 C390.769531,238.804668 389.929696,235.808604 388.25,233.691406 C386.570304,231.574208 384.300796,230.515625 381.441406,230.515625 C378.582017,230.515625 376.30079,231.570302 374.597656,233.679688 C372.894523,235.789073 372.042969,238.789043 372.042969,242.679688 C372.042969,246.570332 372.894523,249.570302 374.597656,251.679688 C376.30079,253.789073 378.582017,254.84375 381.441406,254.84375 C384.300796,254.84375 386.570304,253.789073 388.25,251.679688 Z M392.761719,256.929688 C390.152331,259.617201 386.378931,260.960938 381.441406,260.960938 C376.503882,260.960938 372.730482,259.617201 370.121094,256.929688 C366.621076,253.632796 364.871094,248.882844 364.871094,242.679688 C364.871094,236.351531 366.621076,231.601578 370.121094,228.429688 C372.730482,225.742174 376.503882,224.398438 381.441406,224.398438 C386.378931,224.398438 390.152331,225.742174 392.761719,228.429688 C396.246111,231.601578 397.988281,236.351531 397.988281,242.679688 C397.988281,248.882844 396.246111,253.632796 392.761719,256.929688 Z M403.378906,225.453125 L410.949219,225.453125 L424.707031,249.570312 L424.707031,225.453125 L431.433594,225.453125 L431.433594,260 L424.214844,260 L410.105469,235.460938 L410.105469,260 L403.378906,260 L403.378906,225.453125 Z" id="map_overlay" fill="#D8D8D8"></path>
    </g>
</svg>